<?xml version="1.0" encoding="UTF-8" standalone="no"?>
<!-- Created with Inkscape (http://www.inkscape.org/) -->

<svg
   width="210mm"
   height="297mm"
   viewBox="0 0 210 297"
   version="1.1"
   id="svg5"
   inkscape:version="1.2.2 (732a01da63, 2022-12-09)"
   sodipodi:docname="logo.svg"
   xmlns:inkscape="http://www.inkscape.org/namespaces/inkscape"
   xmlns:sodipodi="http://sodipodi.sourceforge.net/DTD/sodipodi-0.dtd"
   xmlns="http://www.w3.org/2000/svg"
   xmlns:svg="http://www.w3.org/2000/svg">
  <sodipodi:namedview
     id="namedview7"
     pagecolor="#ffffff"
     bordercolor="#000000"
     borderopacity="0.25"
     inkscape:showpageshadow="2"
     inkscape:pageopacity="0.0"
     inkscape:pagecheckerboard="0"
     inkscape:deskcolor="#d1d1d1"
     inkscape:document-units="mm"
     showgrid="false"
     inkscape:zoom="2.3786088"
     inkscape:cx="214.20084"
     inkscape:cy="390.77464"
     inkscape:window-width="1920"
     inkscape:window-height="1121"
     inkscape:window-x="2551"
     inkscape:window-y="238"
     inkscape:window-maximized="1"
     inkscape:current-layer="layer1" />
  <defs
     id="defs2">
    <rect
       x="274.95064"
       y="404.85851"
       width="271.58733"
       height="94.593109"
       id="rect2760" />
    <rect
       x="122.34042"
       y="632.30238"
       width="119.81794"
       height="50.029244"
       id="rect1271" />
    <rect
       x="96.912452"
       y="579.09649"
       width="232.47097"
       height="67.184706"
       id="rect424" />
    <rect
       x="122.47831"
       y="313.33044"
       width="263.38783"
       height="64.806486"
       id="rect418" />
    <rect
       x="215.82344"
       y="376.94782"
       width="318.68144"
       height="92.156012"
       id="rect362" />
    <rect
       x="117.72187"
       y="442.94341"
       width="187.87935"
       height="150.42239"
       id="rect248" />
    <rect
       x="70.15748"
       y="410.83745"
       width="558.28707"
       height="123.66742"
       id="rect242" />
    <rect
       x="161.12438"
       y="445.32163"
       width="315.11411"
       height="62.428266"
       id="rect236" />
    <rect
       x="96.912453"
       y="579.0965"
       width="232.47096"
       height="67.184708"
       id="rect424-8" />
    <rect
       x="96.912453"
       y="579.0965"
       width="232.47096"
       height="67.184708"
       id="rect424-0" />
    <rect
       x="96.912453"
       y="579.0965"
       width="232.47096"
       height="67.184708"
       id="rect424-2" />
    <rect
       x="96.912453"
       y="579.0965"
       width="232.47096"
       height="67.184708"
       id="rect424-3" />
    <rect
       x="122.34042"
       y="632.30237"
       width="119.81794"
       height="50.029243"
       id="rect1271-4" />
    <rect
       x="96.912453"
       y="579.0965"
       width="232.47096"
       height="67.184708"
       id="rect424-3-6" />
    <rect
       x="122.34042"
       y="632.30237"
       width="119.81794"
       height="50.029243"
       id="rect1271-4-3" />
    <rect
       x="96.912453"
       y="579.0965"
       width="232.47096"
       height="67.184708"
       id="rect424-3-6-5" />
    <rect
       x="122.34042"
       y="632.30237"
       width="119.81794"
       height="50.029243"
       id="rect1271-4-3-7" />
    <rect
       x="122.34042"
       y="632.30237"
       width="119.81794"
       height="50.029243"
       id="rect1271-4-3-7-6" />
    <rect
       x="96.912453"
       y="579.0965"
       width="232.47096"
       height="67.184708"
       id="rect424-3-6-9" />
    <rect
       x="122.34042"
       y="632.30237"
       width="119.81794"
       height="50.029243"
       id="rect1271-4-3-7-6-8" />
    <rect
       x="96.912453"
       y="579.0965"
       width="232.47096"
       height="67.184708"
       id="rect424-3-6-8" />
  </defs>
  <g
     inkscape:label="Layer 1"
     inkscape:groupmode="layer"
     id="layer1">
    <rect
       style="fill:#d4d4d4;fill-opacity:1;stroke-width:0.192215;stroke-opacity:0.5"
       id="rect921"
       width="22.409748"
       height="14.399112"
       x="79.935631"
       y="75.336456"
       inkscape:export-filename="favicon.png"
       inkscape:export-xdpi="3000"
       inkscape:export-ydpi="3000"
       ry="2.6696277" />
    <text
       xml:space="preserve"
       transform="scale(0.26458333)"
       id="text234"
       style="white-space:pre;shape-inside:url(#rect236);display:inline;fill:none;stroke-width:1.00157;stroke-opacity:0.5" />
    <text
       xml:space="preserve"
       transform="scale(0.26458333)"
       id="text240"
       style="font-size:42.6667px;white-space:pre;shape-inside:url(#rect242);display:inline;fill:#000000;stroke-width:1.00157;stroke-opacity:0.5" />
    <text
       xml:space="preserve"
       transform="matrix(0.26458333,0,0,0.26458333,-8.3373942,-96.115997)"
       id="text246"
       style="font-size:42.6667px;white-space:pre;shape-inside:url(#rect248);display:inline;fill:#000000;stroke-width:1.00157;stroke-opacity:0.5"><tspan
         x="117.72266"
         y="481.86948"
         id="tspan1041">PHYEM&lt;</tspan></text>
    <text
       xml:space="preserve"
       transform="matrix(0.26458333,0,0,0.26458333,-34.136123,-62.137183)"
       id="text360"
       style="font-size:42.6667px;white-space:pre;shape-inside:url(#rect362);display:inline;fill:#000000;stroke-width:1.00157;stroke-opacity:0.5"><tspan
         x="215.82422"
         y="415.87339"
         id="tspan1043">pHyem</tspan></text>
    <text
       xml:space="preserve"
       transform="matrix(0.26458333,0,0,0.26458333,-10.697035,-27.84375)"
       id="text416"
       style="font-style:normal;font-variant:normal;font-weight:normal;font-stretch:normal;font-size:42.6667px;font-family:'Microsoft JhengHei';-inkscape-font-specification:'Microsoft JhengHei';white-space:pre;shape-inside:url(#rect418);display:inline;fill:#000000;stroke-width:1.00157;stroke-opacity:0.5"><tspan
         x="122.47852"
         y="356.64261"
         id="tspan1045">PHYEM</tspan></text>
    <text
       xml:space="preserve"
       transform="matrix(0.26458333,0,0,0.26458333,-4.6383095,-81.60593)"
       id="text422"
       style="font-style:normal;font-variant:normal;font-weight:normal;font-stretch:normal;font-size:42.6667px;font-family:'Sitka Banner';-inkscape-font-specification:'Sitka Banner';white-space:pre;shape-inside:url(#rect424);display:inline;fill:#000000;stroke-width:1.00157;stroke-opacity:0.5"><tspan
         x="96.912109"
         y="616.72299"
         id="tspan1049">pHy<tspan
   style="fill:#ff6600"
   id="tspan1047">}</tspan>em</tspan></text>
    <path
       style="fill:#782121;stroke-width:0.112813;stroke-opacity:0.5"
       id="path900"
       d="m 42.274674,86.003319 c 0.17606,-0.34623 0.40957,-0.66487 0.66587,-0.95613 0.0748,-0.0851 0.15445,-0.16558 0.23167,-0.24836 0.34895,-0.32922 0.73933,-0.66398 1.18209,-0.86137 0.0653,-0.0291 0.13391,-0.0508 0.20086,-0.0763 0.41,-0.11864 0.83533,-0.0997 1.25386,-0.0491 0.45351,0.0629 0.89853,0.1714 1.33984,0.29101 0.49183,0.12781 0.97904,0.27208 1.47238,0.39408 0.50521,0.11978 1.01929,0.21164 1.53616,0.26433 0.10406,0.0108 0.20857,0.0161 0.31285,0.0242 0.45918,0.0162 0.91858,-0.006 1.36941,-0.0992 0.30471,-0.0629 0.37765,-0.0954 0.67519,-0.19139 0.68402,-0.2593 1.28444,-0.68602 1.89399,-1.08176 0,0 -1.44519,-0.65029 -1.44519,-0.65029 v 0 c -0.57879,0.41469 -1.17465,0.82106 -1.85664,1.04675 -0.29551,0.0854 -0.36905,0.11499 -0.66979,0.16953 -0.44941,0.0814 -0.90701,0.0941 -1.36187,0.0599 -0.62092,-0.0592 -1.23868,-0.15542 -1.84248,-0.3146 -0.49932,-0.13188 -0.99442,-0.27914 -1.49461,-0.4079 -0.44628,-0.11476 -0.89674,-0.21761 -1.35521,-0.2702 -0.43453,-0.0346 -0.87726,-0.0392 -1.29025,0.12166 -0.18547,0.0872 -0.23328,0.10186 -0.40871,0.21745 -0.34694,0.22867 -0.65414,0.51519 -0.95506,0.79934 -0.0831,0.0841 -0.16903,0.16543 -0.24931,0.25223 -0.27485,0.29715 -0.51219,0.62719 -0.76207,0.94481 0,0 1.557,0.62125 1.557,0.62125 z" />
    <text
       xml:space="preserve"
       transform="matrix(0.26458333,0,0,0.26458333,-10.284876,-101.8472)"
       id="text1269"
       style="font-style:normal;font-variant:normal;font-weight:normal;font-stretch:normal;font-size:42.6667px;font-family:'Sitka Banner';-inkscape-font-specification:'Sitka Banner';white-space:pre;shape-inside:url(#rect1271);display:inline;fill:#003380;stroke-width:1.00157;stroke-opacity:0.5"><tspan
         x="122.33984"
         y="669.93002"
         id="tspan1051">.</tspan></text>
    <text
       xml:space="preserve"
       transform="matrix(0.26458333,0,0,0.26458333,-5.3172498,-63.873647)"
       id="text422-9"
       style="font-style:normal;font-variant:normal;font-weight:normal;font-stretch:normal;font-size:42.6667px;font-family:'Sitka Banner';-inkscape-font-specification:'Sitka Banner';white-space:pre;shape-inside:url(#rect424-3);display:inline;fill:#000000;stroke-width:1.00157;stroke-opacity:0.5"><tspan
         x="96.912109"
         y="616.72299"
         id="tspan1059"><tspan
           style="font-family:Perpetua;-inkscape-font-specification:Perpetua"
           id="tspan1053">pHy</tspan><tspan
           style="font-family:Perpetua;-inkscape-font-specification:Perpetua;fill:#ff6600"
           id="tspan1055">}</tspan><tspan
           style="font-family:Perpetua;-inkscape-font-specification:Perpetua"
           id="tspan1057">em</tspan></tspan></text>
    <path
       style="fill:#782121;stroke-width:0.125812;stroke-opacity:0.5"
       id="path900-3"
       d="m 41.975233,103.73561 c 0.21897,-0.34623 0.5094,-0.66487 0.82817,-0.95613 0.093,-0.0851 0.19209,-0.16558 0.28813,-0.24836 0.43401,-0.32922 0.91954,-0.66398 1.47021,-0.86137 0.0812,-0.0291 0.16655,-0.0508 0.24982,-0.0763 0.50993,-0.11864 1.03893,-0.0997 1.55947,-0.0491 0.56405,0.0629 1.11753,0.1714 1.66641,0.29101 0.6117,0.12781 1.21766,0.27208 1.83125,0.39408 0.62835,0.11978 1.26773,0.21164 1.91058,0.26433 0.12942,0.0108 0.2594,0.0161 0.3891,0.0242 0.5711,0.0162 1.14247,-0.006 1.70318,-0.0992 0.37898,-0.0629 0.4697,-0.0954 0.83976,-0.19139 0.85074,-0.2593 1.59751,-0.68602 2.35562,-1.08176 0,0 -1.79743,-0.65029 -1.79743,-0.65029 v 0 c -0.71986,0.41469 -1.46095,0.82106 -2.30917,1.04675 -0.36754,0.0854 -0.459,0.11499 -0.83304,0.16953 -0.55895,0.0814 -1.12808,0.0941 -1.69381,0.0599 -0.77226,-0.0592 -1.54059,-0.15542 -2.29156,-0.3146 -0.62102,-0.13188 -1.23679,-0.27914 -1.8589,-0.4079 -0.55505,-0.11476 -1.1153,-0.21761 -1.68552,-0.2702 -0.54044,-0.0346 -1.09108,-0.0392 -1.60473,0.12166 -0.23068,0.0872 -0.29014,0.10186 -0.50833,0.21745 -0.4315,0.22867 -0.81358,0.51519 -1.18784,0.79934 -0.10335,0.0841 -0.21023,0.16543 -0.31008,0.25223 -0.34184,0.29715 -0.63703,0.62719 -0.94781,0.94481 0,0 1.9365,0.62125 1.9365,0.62125 z" />
    <text
       xml:space="preserve"
       transform="matrix(0.26458333,0,0,0.26458333,23.644243,-77.783218)"
       id="text1269-6"
       style="font-style:normal;font-variant:normal;font-weight:normal;font-stretch:normal;font-size:42.6667px;font-family:'Sitka Banner';-inkscape-font-specification:'Sitka Banner';white-space:pre;shape-inside:url(#rect1271-4);display:inline;fill:#000000;stroke-width:1.00157;stroke-opacity:0.5"><tspan
         x="122.33984"
         y="669.93002"
         id="tspan1061">.</tspan></text>
    <text
       xml:space="preserve"
       transform="matrix(0.26458333,0,0,0.26458333,55.834643,-62.171373)"
       id="text422-9-0"
       style="font-style:normal;font-variant:normal;font-weight:normal;font-stretch:normal;font-size:42.6667px;font-family:'OCR A Extended';-inkscape-font-specification:'OCR A Extended';white-space:pre;shape-inside:url(#rect424-3-6);display:inline;fill:#000000;stroke-width:1.00157;stroke-opacity:0.5"
       inkscape:export-filename="logo-light.png"
       inkscape:export-xdpi="3000"
       inkscape:export-ydpi="3000"><tspan
         x="96.912109"
         y="618.00159"
         id="tspan1069"><tspan
           style="fill:#333333"
           id="tspan1063">pHy</tspan><tspan
           style="fill:#ff6600"
           id="tspan1065">&gt;</tspan><tspan
           style="fill:#333333"
           id="tspan1067">em</tspan></tspan></text>
    <path
       style="fill:#782121;stroke-width:0.114863;stroke-opacity:0.5"
       id="path900-3-1"
       d="m 120.84922,106.68551 c -0.19204,-0.31208 -0.45961,-0.61332 -0.75865,-0.89708 -0.0872,-0.0829 -0.18112,-0.16303 -0.27166,-0.24454 -0.41331,-0.33234 -0.87873,-0.67727 -1.42328,-0.92231 -0.0804,-0.0361 -0.16553,-0.0669 -0.24826,-0.10058 -0.51016,-0.17544 -1.05233,-0.24365 -1.58879,-0.28519 -0.58202,-0.0383 -1.15741,-0.0387 -1.72911,-0.0294 -0.63665,0.007 -1.26894,0.0263 -1.90698,0.0273 -0.65292,-0.003 -1.31456,-0.0301 -1.97615,-0.0893 -0.13321,-0.0117 -0.26653,-0.0278 -0.39976,-0.0418 -0.58503,-0.0764 -1.16667,-0.18504 -1.73102,-0.34797 -0.38145,-0.11019 -0.47116,-0.15052 -0.84046,-0.28581 -0.84546,-0.34197 -1.56938,-0.80179 -2.30773,-1.23856 0,0 1.89586,-0.23804 1.89586,-0.23804 v 0 c 0.69753,0.44594 1.41752,0.88856 2.26347,1.20318 0.36769,0.12643 0.45842,0.16462 0.8356,0.26721 0.5636,0.15339 1.1439,0.25331 1.72504,0.31499 0.79438,0.0743 1.58817,0.11824 2.36996,0.10902 0.64655,-0.008 1.28913,-0.0289 1.93651,-0.034 0.57756,-0.004 1.15936,10e-4 1.74674,0.049 0.55532,0.0574 1.11832,0.14052 1.62839,0.35041 0.22769,0.10629 0.28711,0.12734 0.49946,0.25447 0.41993,0.25134 0.78408,0.54128 1.14047,0.82806 0.0979,0.0837 0.19964,0.16577 0.29372,0.25111 0.32208,0.29211 0.59348,0.60322 0.88195,0.90688 0,0 -2.03529,0.19282 -2.03529,0.19282 z" />
    <text
       xml:space="preserve"
       transform="matrix(0.26458333,0,0,0.26458333,-6.1971464,-43.193077)"
       id="text422-9-0-4"
       style="font-style:normal;font-variant:normal;font-weight:normal;font-stretch:normal;font-size:42.6667px;font-family:'Imprint MT Shadow';-inkscape-font-specification:'Imprint MT Shadow';white-space:pre;shape-inside:url(#rect424-3-6-5);display:inline;fill:#000000;stroke-width:1.00157;stroke-opacity:0.5"><tspan
         x="96.912109"
         y="616.20776"
         id="tspan1073">pHy<tspan
   style="fill:#d45500"
   id="tspan1071">}</tspan>em</tspan></text>
    <path
       style="fill:#782121;stroke-width:0.120315;stroke-opacity:0.5"
       id="path900-3-1-1"
       d="m 45.512174,124.66581 c 0.21876,-0.30326 0.51986,-0.59197 0.85489,-0.86165 0.0978,-0.0788 0.20267,-0.15448 0.304,-0.23171 0.46139,-0.31279 0.98018,-0.63564 1.58276,-0.85462 0.0889,-0.0323 0.18294,-0.059 0.2744,-0.0887 0.563,-0.15094 1.15809,-0.19296 1.74618,-0.20838 0.63785,-0.0103 1.26741,0.0175 1.89266,0.0546 0.69639,0.037 1.38762,0.0879 2.08567,0.12003 0.71444,0.0288 1.43909,0.0337 2.16458,0.007 0.1461,-0.005 0.29236,-0.015 0.43853,-0.0226 0.64212,-0.0488 1.28157,-0.12861 1.90354,-0.26444 0.42039,-0.0918 0.51965,-0.12788 0.92746,-0.24542 0.93449,-0.30144 1.73925,-0.72681 2.55918,-1.12839 0,0 -2.06767,-0.33056 -2.06767,-0.33056 v 0 c -0.77553,0.41275 -1.57552,0.82107 -2.50979,1.0951 -0.40578,0.10875 -0.50612,0.14254 -0.92162,0.22704 -0.62089,0.12618 -1.25858,0.19803 -1.89608,0.23168 -0.87122,0.0358 -1.74091,0.0412 -2.59603,-0.006 -0.70716,-0.0393 -1.40963,-0.0915 -2.11777,-0.12819 -0.6318,-0.0326 -1.26851,-0.055 -1.91249,-0.0358 -0.60917,0.0305 -1.22744,0.0864 -1.79132,0.27191 -0.25207,0.0953 -0.31765,0.11361 -0.55349,0.23058 -0.46642,0.23134 -0.87286,0.50404 -1.27073,0.77398 -0.10943,0.0791 -0.22303,0.15632 -0.32832,0.23722 -0.36047,0.27692 -0.66602,0.57536 -0.99004,0.86545 0,0 2.22146,0.29206 2.22146,0.29206 z" />
    <text
       xml:space="preserve"
       transform="matrix(0.26458333,0,0,0.26458333,28.423179,-57.483303)"
       id="text1269-6-3-9"
       style="font-style:normal;font-variant:normal;font-weight:normal;font-stretch:normal;font-size:42.6667px;font-family:'Sitka Banner';-inkscape-font-specification:'Sitka Banner';white-space:pre;shape-inside:url(#rect1271-4-3-7);display:inline;fill:#000000;stroke-width:1.00157;stroke-opacity:0.5"><tspan
         x="122.33984"
         y="669.93002"
         id="tspan1075">.</tspan></text>
    <text
       xml:space="preserve"
       transform="matrix(0.26458333,0,0,0.26458333,90.018747,-75.415968)"
       id="text1269-6-3-9-7"
       style="font-style:normal;font-variant:normal;font-weight:normal;font-stretch:normal;font-size:42.6667px;font-family:'Sitka Banner';-inkscape-font-specification:'Sitka Banner';white-space:pre;shape-inside:url(#rect1271-4-3-7-6);display:inline;fill:#000000;stroke-width:1.00157;stroke-opacity:0.5"><tspan
         x="122.33984"
         y="669.93002"
         id="tspan1079"><tspan
           style="fill:#333333"
           id="tspan1077">.</tspan></tspan></text>
    <text
       xml:space="preserve"
       transform="matrix(0.26458333,0,0,0.26458333,56.158777,-45.367277)"
       id="text422-9-0-7"
       style="font-style:normal;font-variant:normal;font-weight:normal;font-stretch:normal;font-size:42.6667px;font-family:'OCR A Extended';-inkscape-font-specification:'OCR A Extended';white-space:pre;shape-inside:url(#rect424-3-6-9);display:inline;fill:#000000;stroke-width:1.00157;stroke-opacity:0.5"
       inkscape:export-filename="logo-dark.png"
       inkscape:export-xdpi="3000"
       inkscape:export-ydpi="3000"><tspan
         x="96.912109"
         y="618.00159"
         id="tspan1087"><tspan
           style="fill:#cccccc"
           id="tspan1081">pHy</tspan><tspan
           style="fill:#ff9955"
           id="tspan1083">&gt;</tspan><tspan
           style="fill:#cccccc"
           id="tspan1085">em</tspan></tspan></text>
    <path
       style="fill:#d35f5f;stroke-width:0.114863;stroke-opacity:0.5"
       id="path900-3-1-2"
       d="m 121.17336,123.48961 c -0.19204,-0.31208 -0.45961,-0.61332 -0.75865,-0.89708 -0.0872,-0.0829 -0.18112,-0.16303 -0.27166,-0.24454 -0.41331,-0.33234 -0.87873,-0.67727 -1.42328,-0.92231 -0.0804,-0.0361 -0.16553,-0.0669 -0.24826,-0.10058 -0.51016,-0.17544 -1.05233,-0.24365 -1.58879,-0.28519 -0.58202,-0.0383 -1.15741,-0.0387 -1.72911,-0.0294 -0.63665,0.007 -1.26894,0.0263 -1.90698,0.0273 -0.65292,-0.003 -1.31456,-0.0301 -1.97615,-0.0893 -0.13321,-0.0117 -0.26653,-0.0278 -0.39976,-0.0418 -0.58503,-0.0764 -1.16667,-0.18504 -1.73102,-0.34797 -0.38145,-0.11019 -0.47116,-0.15052 -0.84046,-0.28581 -0.84546,-0.34197 -1.56938,-0.80179 -2.30773,-1.23856 0,0 1.89586,-0.23804 1.89586,-0.23804 v 0 c 0.69753,0.44594 1.41752,0.88856 2.26347,1.20318 0.36769,0.12643 0.45842,0.16462 0.8356,0.26721 0.5636,0.15339 1.1439,0.25331 1.72504,0.31499 0.79438,0.0743 1.58817,0.11824 2.36996,0.10902 0.64655,-0.008 1.28913,-0.0289 1.93651,-0.034 0.57756,-0.004 1.15936,0.001 1.74674,0.049 0.55532,0.0574 1.11832,0.14052 1.62839,0.35041 0.22769,0.10629 0.28711,0.12734 0.49946,0.25447 0.41993,0.25134 0.78408,0.54128 1.14047,0.82806 0.0979,0.0837 0.19964,0.16577 0.29372,0.25111 0.32208,0.29211 0.59348,0.60322 0.88195,0.90688 0,0 -2.03529,0.19282 -2.03529,0.19282 z" />
    <text
       xml:space="preserve"
       transform="matrix(0.26458333,0,0,0.26458333,90.342882,-58.611872)"
       id="text1269-6-3-9-7-9"
       style="font-style:normal;font-variant:normal;font-weight:normal;font-stretch:normal;font-size:42.6667px;font-family:'Sitka Banner';-inkscape-font-specification:'Sitka Banner';white-space:pre;shape-inside:url(#rect1271-4-3-7-6-8);display:inline;fill:#cccccc;stroke-width:1.00157;stroke-opacity:0.5"><tspan
         x="122.33984"
         y="669.93002"
         id="tspan1089">.</tspan></text>
    <text
       xml:space="preserve"
       transform="matrix(0.26458333,0,0,0.26458333,55.938748,-78.144929)"
       id="text422-9-0-78"
       style="font-style:normal;font-variant:normal;font-weight:normal;font-stretch:normal;font-size:42.6667px;font-family:'OCR A Extended';-inkscape-font-specification:'OCR A Extended';white-space:pre;shape-inside:url(#rect424-3-6-8);display:inline;fill:#000000;stroke-width:1.00157;stroke-opacity:0.5"
       inkscape:export-filename="logo-light.png"
       inkscape:export-xdpi="3000"
       inkscape:export-ydpi="3000"><tspan
         x="96.912109"
         y="618.00159"
         id="tspan1095"><tspan
           style="fill:#333333"
           id="tspan1091">pH</tspan><tspan
           style="fill:#d45500"
           id="tspan1093">&gt;</tspan></tspan></text>
    <text
       xml:space="preserve"
       transform="scale(0.26458333)"
       id="text2758"
       style="fill:#d45500;stroke-width:1.0015748;stroke-opacity:0.5;font-size:42.66666667px;-inkscape-font-specification:'Imprint MT Shadow';font-family:'Imprint MT Shadow';fill-opacity:1;white-space:pre;shape-inside:url(#rect2760)" />
  </g>
</svg>
